# xmcd
#
# Track frame offsets:
#	182
#	15327
#	34217
#	49362
#	69225
#	88587
#	109055
#	130952
#	147372
#	169500
#	189070
#	209790
#	228167
#	242445
#	253612
#	268530
#
# Disc length: 3836 seconds
#
# Revision: 5
# Processed by: cddbd v1.5.2PL0 Copyright (c) Steve Scherf et al.
# Submitted via: EZCDAudioConverter 2.1.7.1
#
DISCID=d50efa10
DTITLE=V/A - Arista: The First 20 Years
DYEAR=1997
DGENRE=
TTITLE0=Barry Manilow - Mandy
TTITLE1=Aretha Franklin - Freeway Of Love
TTITLE2=Patti Smith - Because The Night
TTITLE3=Lisa Stansfield - All Around The World
TTITLE4=Toni Braxton - Breathe Again
TTITLE5=Kenny G - Silhouette
TTITLE6=Whitney Houston - I Wanna Dance With Somebody (Who Loves Me)
TTITLE7=Carly Simon - Coming Around Again
TTITLE8=Annie Lennox - Why
TTITLE9=TLC - Waterfalls
TTITLE10=Grateful Dead - Touch Of Grey
TTITLE11=Real McCoy - Run Away
TTITLE12=Ace Of Base - The Sign
TTITLE13=Alan Jackson - Chattahoochee
TTITLE14=Brooks and Dunn - Boot Scootin' Boogie
TTITLE15=Dionne Warwick with Elton John, Gladys Knight and Stevie Wonder - That'
TTITLE15=s What Friends Are For
EXTD=
EXTT0=
EXTT1=
EXTT2=
EXTT3=
EXTT4=
EXTT5=
EXTT6=
EXTT7=
EXTT8=
EXTT9=
EXTT10=
EXTT11=
EXTT12=
EXTT13=
EXTT14=
EXTT15=
PLAYORDER=
